<?xml version="1.0" encoding="UTF-8"?>
<svg xmlns="http://www.w3.org/2000/svg" version="1.1" viewBox="0 0 24 18.5">
  <defs>
    <style>
      .cls-1 {
        fill: #0061f0;
        fill-rule: evenodd;
      }
    </style>
  </defs>
  <!-- Generator: Adobe Illustrator 28.6.0, SVG Export Plug-In . SVG Version: 1.2.0 Build 709)  -->
  <g>
    <g id="Capa_1">
      <path class="cls-1" d="M7.3,3.2c0-.6.4-1,1-1h1v1c0,.6.4,1,1,1s1-.4,1-1v-1c0-1.1-.9-2-2-2h-1c-1.7,0-3,1.3-3,3v5h-1c-1.1,0-2,.9-2,2v1c0,2,1,3.8,2.6,5l-.3.3c-.4.4-.4,1,0,1.4.4.4,1,.4,1.4,0,0,0,0,0,0,0l.9-.9c.5.1.9.2,1.4.2h8c.5,0,1,0,1.4-.2l.9.9c.4.4,1,.4,1.4,0,.4-.4.4-1,0-1.4l-.3-.3c1.6-1.1,2.6-3,2.6-5v-1c0-1.1-.9-2-2-2H7.3V3.2ZM4.3,10.2h16v1c0,2.2-1.8,4-4,4h-8c-2.2,0-4-1.8-4-4v-1Z"/>
    </g>
  </g>
</svg>