<?xml version="1.0" encoding="UTF-8"?>
<svg xmlns="http://www.w3.org/2000/svg" version="1.1" viewBox="0 0 21.3 15.4">
  <defs>
    <style>
      .cls-1 {
        fill: #0061f0;
        fill-rule: evenodd;
      }
    </style>
  </defs>
  <!-- Generator: Adobe Illustrator 28.6.0, SVG Export Plug-In . SVG Version: 1.2.0 Build 709)  -->
  <g>
    <g id="Capa_1">
      <g id="Capa_1-2" data-name="Capa_1">
        <path class="cls-1" d="M1.7.7c.5,0,.9.4,1,.9h0v7.1h7V3.7c0-.5.4-.9.9-1h7.1c1.6,0,2.9,1.2,3,2.8v8.2c0,.6-.4,1-1,1s-.9-.4-1-.9h0v-3.1H2.7v3c0,.6-.4,1-1,1s-.9-.4-1-.9h0V1.7c0-.6.4-1,1-1ZM17.6,4.7h-6v4h7v-3c0-.6-.4-1-1-1ZM6.2,2.7c1.4,0,2.5,1.1,2.5,2.5s-1.1,2.5-2.5,2.5-2.5-1.1-2.5-2.5,1.1-2.5,2.5-2.5ZM6.2,4.7c-.3,0-.5.2-.5.5s.2.5.5.5.5-.2.5-.5-.2-.5-.5-.5Z"/>
      </g>
    </g>
  </g>
</svg>