<?xml version="1.0" encoding="UTF-8"?>
<svg xmlns="http://www.w3.org/2000/svg" version="1.1" viewBox="0 0 18.5 18.7">
  <defs>
    <style>
      .cls-1 {
        fill: #0061f0;
        fill-rule: evenodd;
      }
    </style>
  </defs>
  <!-- Generator: Adobe Illustrator 28.6.0, SVG Export Plug-In . SVG Version: 1.2.0 Build 709)  -->
  <g>
    <g id="Capa_1">
      <path class="cls-1" d="M3.7,2.8c-.9,0-1.6.7-1.6,1.6v11.1c0,.9.7,1.6,1.6,1.6h4c.9,0,1.6-.7,1.6-1.6v-5.5h5.5c.9,0,1.6-.7,1.6-1.6v-4c0-.9-.7-1.6-1.6-1.6H3.7ZM5.3,4.4v.8c0,.4.4.8.8.8s.8-.4.8-.8v-.8h1.6v.8c0,.4.4.8.8.8s.8-.4.8-.8v-.8h1.6v.8c0,.4.4.8.8.8s.8-.4.8-.8v-.8h1.6v4h-5.9c-.7,0-1.2.5-1.2,1.2v5.9h-4v-1.6h.8c.4,0,.8-.4.8-.8s-.4-.8-.8-.8h-.8v-1.6h.8c.4,0,.8-.4.8-.8s-.4-.8-.8-.8h-.8v-1.6h.8c.4,0,.8-.4.8-.8s-.4-.8-.8-.8h-.8v-1.6h1.6Z"/>
    </g>
  </g>
</svg>